<?xml version="1.0" encoding="iso-8859-1"?>
<!-- Generator: Adobe Illustrator 16.0.0, SVG Export Plug-In . SVG Version: 6.00 Build 0)  -->
<!DOCTYPE svg PUBLIC "-//W3C//DTD SVG 1.1//EN" "http://www.w3.org/Graphics/SVG/1.1/DTD/svg11.dtd">
<svg version="1.1" id="Capa_1" xmlns="http://www.w3.org/2000/svg" xmlns:xlink="http://www.w3.org/1999/xlink" x="0px" y="0px"
	 width="548.364px" height="548.364px" viewBox="0 0 548.364 548.364" style="enable-background:new 0 0 548.364 548.364;"
	 xml:space="preserve">
<g fill='#c5c5c5'>
	<path d="M509.134,144.021c-24.973-25.729-52.582-31.419-53.847-31.673c-39.963-7.306-73.021-1.067-98.296,18.533
		c-39.502,30.629-45.974,83.144-46.777,91.628c-1.407,3.91-2.613,7.923-3.529,12.052c-4.587,20.386-2.252,41.754,5.852,60.526
		L32.88,295.337c-3.697,0-6.875,2.631-7.589,6.248L0.144,429.748c-0.443,2.27,0.15,4.616,1.617,6.401
		c1.469,1.791,3.662,2.825,5.979,2.825h49.316h0.006c0.006,0,0.006,0,0.012,0h40.341h0.006c0,0,0.006,0,0.012,0h43.598h0.006
		c0,0,0.006,0,0.012,0h46.308c0.006,0,0.012,0,0.012,0h0.009h46.742c0.006,0,0.012,0,0.012,0h0.006h43.592h0.006h0.006h110.213
		c73.902,0,131.993-39.697,151.604-103.593c4.321-14.097,6.378-28.543,6.438-42.835
		C556.172,211.768,531.648,167.209,509.134,144.021z M366.472,143.105c21.657-16.775,50.597-22.006,85.919-15.555
		c0.243,0.044,23.998,4.944,45.644,27.249c17.253,17.771,28.2,41.721,32.633,70.772c-13.074-26.708-33.98-48.971-60.763-61.868
		c-32.095-15.459-72.761-15.04-106.104,1.088c-10.273,4.977-19.382,11.18-27.231,18.376
		C342.669,169.175,352.056,154.291,366.472,143.105z M387.97,423.5H287.079l6.844-36.168c0.787-4.196-1.974-8.245-6.17-9.038
		c-4.197-0.797-8.246,1.969-9.038,6.166l-7.392,39.04h-27.854l6.842-36.168c0.792-4.196-1.968-8.245-6.168-9.038
		c-4.202-0.797-8.245,1.969-9.043,6.166l-7.392,39.04H196.49l10.102-60.485c0.703-4.208-2.143-8.197-6.354-8.907
		c-4.214-0.709-8.204,2.146-8.905,6.354L180.8,423.5h-30.45l6.845-36.168c0.801-4.196-1.959-8.245-6.162-9.038
		c-4.206-0.803-8.243,1.969-9.041,6.166l-7.386,39.04h-27.86l6.845-36.168c0.795-4.196-1.965-8.245-6.159-9.038
		c-4.202-0.803-8.245,1.969-9.043,6.166l-7.385,39.04H66.182l10.104-60.485c0.7-4.208-2.143-8.197-6.357-8.907
		c-4.217-0.709-8.201,2.146-8.901,6.354L50.506,423.5h-33.37l22.106-112.7l281.681-0.254c4.285,6.437,9.362,12.347,15.155,17.543
		c26.45,23.708,67.182,26.758,96.83,7.246c15.876-10.444,26.959-26.894,30.404-45.141c3.264-17.235-0.508-34.593-10.609-48.891
		c-11.544-16.34-32.184-25.585-52.594-23.569c-18.093,1.791-32.615,12.167-39.845,28.466c-7.589,17.118-3.416,37.865,10.143,50.46
		c14.523,13.488,37.705,13.086,51.673-0.887c3.025-3.021,3.025-7.921,0-10.947c-3.027-3.02-7.921-3.02-10.936,0
		c-8.163,8.163-21.704,8.388-30.204,0.497c-8.801-8.169-11.484-21.681-6.537-32.846c6.721-15.149,19.942-18.625,27.237-19.352
		c14.741-1.457,30.168,5.417,38.432,17.112c7.654,10.834,10.509,24.003,8.032,37.078c-2.672,14.15-11.313,26.941-23.702,35.087
		c-23.879,15.723-56.684,13.258-77.992-5.84c-21.386-19.169-31.062-50.026-24.643-78.61c5.799-25.78,23.117-46.813,48.782-59.226
		c29.193-14.121,64.688-14.538,92.64-1.079c52.186,25.127,79.812,93.849,61.596,153.201C507.249,388,454.82,423.5,387.97,423.5z"/>
</g>
</svg>
