<?xml version="1.0" encoding="utf-8"?>
<!-- Generator: Adobe Illustrator 24.1.1, SVG Export Plug-In . SVG Version: 6.00 Build 0)  -->
<svg version="1.1" id="Layer_1" xmlns="http://www.w3.org/2000/svg" xmlns:xlink="http://www.w3.org/1999/xlink" x="0px" y="0px"
	 viewBox="0 0 512 512" style="enable-background:new 0 0 512 512;" xml:space="preserve">
<g fill='#c5c5c5'>
	<path d="M364.5,163.2l104.8,47.6v231.2l-127.5-54.6l-170.7,64L42.7,396.4V164.7l77.4,31l15.8-39.6L0,101.6v322.9l170.1,72.9
		l170.7-64L512,506.8V183.4l-129.8-59L364.5,163.2L364.5,163.2z M362.7,410.5V261.2H320v149.3H362.7z M192,474.5V261.2h-42.7v213.3
		H192z M256,352.3l13.3-16.7l-0.2-0.2c-3.1-2.5-34.2-28-63.7-63.3c-14.8-17.6-29.1-37.7-39.5-58.1c-10.4-20.4-16.6-41-16.6-59.6
		c0.1-34.2,13.3-59.9,33.1-78.3C202.3,58,229.3,47.8,256,47.8c26.7,0,53.7,10.1,73.6,28.4c19.8,18.3,33,44,33.1,78.3
		c0.1,19.2-6.6,40.5-17.6,61.6c-16.4,31.6-42.2,62-63.8,84.1c-10.8,11-20.6,20-27.6,26.2c-3.5,3.1-6.3,5.5-8.2,7.1l-2.1,1.8
		l-0.6,0.5L256,352.3l13.3-16.7L256,352.3l13.3,16.7c0.6-0.5,33.5-26.6,66.9-65.7c16.7-19.6,33.6-42.5,46.7-67.5
		c13-25,22.4-52.5,22.4-81.3c0.1-45.8-18.7-84.1-46.9-109.7C330.3,19,293.3,5.2,256,5.2c-37.3,0-74.3,13.9-102.4,39.6
		c-28.2,25.7-47,64-46.9,109.7c0.1,28.8,9.4,56.2,22.4,81.3c19.6,37.5,47.8,70.3,71.2,94.2c23.4,23.8,42,38.7,42.5,39l13.3,10.6
		l13.3-10.6L256,352.3z M277.3,154.5h21.3c0-23.6-19.1-42.7-42.7-42.7c-23.6,0-42.7,19.1-42.7,42.7c0,23.6,19.1,42.7,42.7,42.7
		c23.6,0,42.7-19.1,42.7-42.7H277.3H256l0,0v0v0H277.3z"/>
</g>
</svg>
